<?xml version="1.0" encoding="UTF-8"?>
<svg version="1.1" xmlns="http://www.w3.org/2000/svg" width="500" height="500">
<path d="M0 0 C3 1 3 1 4 3 C4.32745704 24.63555426 -0.87804265 45.52661577 -12 64.125 C-13.54213479 66.81866306 -14 67.75466319 -14 70.9375 C-13.67 71.948125 -13.34 72.95875 -13 74 C-12.49877617 75.70797466 -11.99887912 77.416339 -11.5 79.125 C-11.11328125 80.36636719 -11.11328125 80.36636719 -10.71875 81.6328125 C-5.79179065 97.85964601 -8.20153176 115.79680582 -15.75 130.6875 C-18.95312185 136.25251979 -22.89822528 141.08117156 -27 146 C-30.33221613 150.20396949 -33.3525663 154.5077961 -36.1875 159.0625 C-39.54112577 164.43728415 -43.24267791 169.49584954 -47.0925293 174.52172852 C-50.31792936 178.80697752 -52.71423489 183.14475655 -55 188 C-53.77990234 187.09121094 -53.77990234 187.09121094 -52.53515625 186.1640625 C-45.92776693 181.31069159 -39.23266193 176.84153013 -32.125 172.75 C-23.0912392 167.52203643 -15.78726381 162.90625646 -10 154 C-9.38125 153.05125 -8.7625 152.1025 -8.125 151.125 C-6.75809624 147.3280451 -6.89328832 144.2597771 -7.1875 140.26953125 C-7 138 -7 138 -5.5 136.19921875 C-5.005 135.80347656 -4.51 135.40773437 -4 135 C-0.06153846 138.32307692 -0.06153846 138.32307692 0.25 141.75 C0.1675 142.4925 0.085 143.235 0 144 C0.66 144.33 1.32 144.66 2 145 C3 148.5 3 148.5 4 152 C4.66 152.33 5.32 152.66 6 153 C6.63385922 155.04243528 7.01826504 157.09132519 7.4375 159.1875 C7.623125 159.785625 7.80875 160.38375 8 161 C8.66 161.33 9.32 161.66 10 162 C10.78438699 164.56627745 11.45490622 167.07923622 12.0625 169.6875 C12.23587891 170.39583984 12.40925781 171.10417969 12.58789062 171.83398438 C17.33757761 191.54245564 15.50999025 209.42588165 5.25683594 227.03808594 C3.17003912 230.29556442 0.78333269 233.19995193 -1.8125 236.0625 C-2.26101318 236.56193115 -2.70952637 237.0613623 -3.17163086 237.57592773 C-11.63964076 246.33710052 -23.01865823 251.08875614 -34 255.875 C-35.32196049 256.46015667 -36.64357723 257.04609054 -37.96484375 257.6328125 C-47.34580298 261.78193433 -47.34580298 261.78193433 -51 263 C-51 263.66 -51 264.32 -51 265 C-51.763125 265.45375 -52.52625 265.9075 -53.3125 266.375 C-57.71391523 269.03632084 -59.28380707 272.24746575 -61 277 C-59.824375 277.680625 -59.824375 277.680625 -58.625 278.375 C-56 280 -56 280 -54 282 C-51.0363274 282.34745898 -51.0363274 282.34745898 -49.60546875 280.65234375 C-49.13753906 280.08644531 -48.66960937 279.52054687 -48.1875 278.9375 C-46.609375 277.28125 -46.609375 277.28125 -45 276 C-39.63167594 275.89044237 -35.99808391 278.64994331 -31.6875 281.5625 C-28.99432135 282.29257563 -28.99432135 282.29257563 -26.90625 280.78515625 C-24.86611497 279.25864676 -22.91394995 277.68123643 -21 276 C-20.09314453 276.45439453 -20.09314453 276.45439453 -19.16796875 276.91796875 C-17.55330052 277.72384821 -15.93405843 278.52057611 -14.3125 279.3125 C-12 281 -12 281 -11.1875 283.6875 C-11.125625 284.450625 -11.06375 285.21375 -11 286 C-6.61105071 282.73279209 -2.24740335 279.45101522 2 276 C3.33333333 276.66666667 4.66666667 277.33333333 6 278 C6.70125 278.2475 7.4025 278.495 8.125 278.75 C10.89478683 280.59652455 11.18480954 282.87510323 12 286 C12.556875 285.443125 13.11375 284.88625 13.6875 284.3125 C14.450625 283.549375 15.21375 282.78625 16 282 C16.86625 281.113125 17.7325 280.22625 18.625 279.3125 C21.28609478 276.72143403 22.17506141 276.10999181 25.8125 275.625 C29 276 29 276 31.75 278.0625 C34.36904661 281.48181086 35.10208865 283.83695646 36 288 C36.45375 287.13375 36.9075 286.2675 37.375 285.375 C40.4642185 280.77403628 45.0086449 278.20318566 50 276 C53.17035162 275.58421618 54.95578868 275.54493748 58 276 C59.05960938 276.14308594 60.11921875 276.28617187 61.2109375 276.43359375 C66.17035856 277.15243118 71.09170552 277.98920095 76 279 C75.6875 280.9375 75.6875 280.9375 75 283 C74.01 283.33 73.02 283.66 72 284 C71.154375 284.845625 70.30875 285.69125 69.4375 286.5625 C68.633125 287.366875 67.82875 288.17125 67 289 C66.34 289 65.68 289 65 289 C64.67 290.32 64.34 291.64 64 293 C64.61875 293.0825 65.2375 293.165 65.875 293.25 C68 294 68 294 69 295.875 C69.33 296.57625 69.66 297.2775 70 298 C70.66386719 298.43570312 71.32773437 298.87140625 72.01171875 299.3203125 C74 301 74 301 74.64453125 303.375 C74.69996094 304.24125 74.75539063 305.1075 74.8125 306 C74.88082031 306.86625 74.94914063 307.7325 75.01953125 308.625 C75 311 75 311 74 314 C73.34 314 72.68 314 72 314 C71.731875 314.598125 71.46375 315.19625 71.1875 315.8125 C69.18045164 319.50969435 66.86131814 321.39817157 63 323 C54.2261236 324.35487008 45.00150831 325.18277802 37.25 320.25 C35.03248502 318.68485932 35.03248502 318.68485932 32.4375 319.625 C30.12224836 320.93103939 28.0593606 322.32200248 26 324 C19.98927992 318.46381045 18.8152833 314.39255999 18.46875 306.45117188 C18.4378125 305.53916016 18.406875 304.62714844 18.375 303.6875 C18.33632813 302.75615234 18.29765625 301.82480469 18.2578125 300.86523438 C18.16393687 298.57701593 18.07825491 296.28879705 18 294 C14.7880255 295.42041014 14.7880255 295.42041014 12.6875 298.1875 C11.82427689 301.71886726 12.30602863 304.460746 13 308 C13.99 308.33 14.98 308.66 16 309 C17.1875 311.0625 17.1875 311.0625 18 313 C17.401875 313.268125 16.80375 313.53625 16.1875 313.8125 C13.95678554 315.02345928 12.75037849 316.18229926 11 318 C8.125 320.75 8.125 320.75 5 323 C2.125 322.8125 2.125 322.8125 0 322 C-0.495 320.515 -0.495 320.515 -1 319 C-1.66 319 -2.32 319 -3 319 C-3.66 317.02 -4.32 315.04 -5 313 C-8.2630365 315.09766632 -11.31420839 317.21191415 -14.25 319.75 C-17 322 -17 322 -19 322 C-19 322.66 -19 323.32 -19 324 C-22.76992919 322.78823705 -24.30275869 320.49266355 -26.17089844 317.10131836 C-27.66454794 313.31573495 -27.41804731 309.57301363 -27.25 305.5625 C-27.23195313 304.73556641 -27.21390625 303.90863281 -27.1953125 303.05664062 C-27.1486214 301.03725067 -27.07689393 299.01846555 -27 297 C-27.99 297 -28.98 297 -30 297 C-29.979375 296.195625 -29.95875 295.39125 -29.9375 294.5625 C-29.70366379 292.06645115 -29.70366379 292.06645115 -31 291 C-30.9175 292.11375 -30.835 293.2275 -30.75 294.375 C-30.81948955 304.24251587 -36.3976164 312.09081419 -43 319 C-45.25938205 320.84819183 -47.55075104 322.40049047 -50 324 C-50.33 324.66 -50.66 325.32 -51 326 C-51.99 326 -52.98 326 -54 326 C-54 326.66 -54 327.32 -54 328 C-53.01 328.33 -52.02 328.66 -51 329 C-51.33 329.33 -51.66 329.66 -52 330 C-51.01 330.66 -50.02 331.32 -49 332 C-49 332.99 -49 333.98 -49 335 C-50.57421875 336.46484375 -50.57421875 336.46484375 -52.6875 337.9375 C-53.41324219 338.45441406 -54.13898438 338.97132813 -54.88671875 339.50390625 C-55.58410156 339.99761719 -56.28148437 340.49132812 -57 341 C-58.67344761 342.32481269 -60.34348188 343.65407903 -62 345 C-65.37329915 343.60415208 -67.04232662 342.07634389 -69 339 C-69.92923977 336.21228069 -70.14867338 334.41765752 -70.20532227 331.52856445 C-70.2352401 330.17750359 -70.2352401 330.17750359 -70.26576233 328.79914856 C-70.28247482 327.83031235 -70.29918732 326.86147614 -70.31640625 325.86328125 C-70.33718735 324.86870407 -70.35796844 323.87412689 -70.37937927 322.84941101 C-70.44479412 319.67051133 -70.5037224 316.49152866 -70.5625 313.3125 C-70.60569288 311.15819452 -70.64930742 309.00389746 -70.69335938 306.84960938 C-70.80046726 301.56649412 -70.90224873 296.28329621 -71 291 C-71.99 291 -72.98 291 -74 291 C-73.95359375 291.556875 -73.9071875 292.11375 -73.859375 292.6875 C-73.57240146 298.75494057 -74.29854257 303.09806989 -78 308 C-81.47128726 311.58272506 -85.182575 314.79400101 -89 318 C-89.71929687 318.68449219 -90.43859375 319.36898438 -91.1796875 320.07421875 C-93.84045176 322.4518093 -95.62286656 324.01650674 -99.28125 323.97265625 C-104.75212149 322.57758402 -107.66853432 319.69529201 -110.80859375 315.1328125 C-114.62631715 308.29846176 -115.08935666 301.72213313 -114 294 C-112.33008897 290.47789891 -109.9881579 288.45019167 -107 286 C-105.98532078 285.08763568 -104.97102459 284.17484528 -103.95703125 283.26171875 C-95.98719548 276.35839449 -95.98719548 276.35839449 -91.3359375 275.51953125 C-89.04042236 275.74601184 -87.16007974 276.20751792 -85 277 C-83.6078125 277.3403125 -83.6078125 277.3403125 -82.1875 277.6875 C-79.1305666 279.52166004 -77.78041024 281.96670849 -76 285 C-72.60452419 283.56598837 -70.33594137 281.86355747 -68 279 C-66.69699741 275.44455661 -66.11367242 271.74200468 -65.43408203 268.02758789 C-64.06918275 260.71181666 -61.47303284 254.58557365 -58 248 C-57.58363281 247.12730469 -57.16726562 246.25460937 -56.73828125 245.35546875 C-50.27300457 232.40550015 -40.20626814 221.25932541 -30.8359375 210.328125 C-27.55004553 206.48795801 -24.32911422 202.59602948 -21.125 198.6875 C-20.58939453 198.04159912 -20.05378906 197.39569824 -19.50195312 196.73022461 C-15.93936071 192.3680604 -12.87448701 187.84220838 -10 183 C-11.19096751 184.16312671 -12.37752704 185.33076672 -13.5625 186.5 C-14.55443359 187.47453125 -14.55443359 187.47453125 -15.56640625 188.46875 C-17.54483133 190.52656613 -19.42434974 192.61414398 -21.29296875 194.76953125 C-24.99115694 199.02817111 -28.85702736 203.10758875 -32.75 207.1875 C-47.7552584 222.0024136 -47.7552584 222.0024136 -58 240 C-59 241 -60 242 -61 243 C-62.19599068 245.03232242 -62.19599068 245.03232242 -63.1875 247.1875 C-63.70376953 248.26064453 -63.70376953 248.26064453 -64.23046875 249.35546875 C-64.61138672 250.16951172 -64.61138672 250.16951172 -65 251 C-65.66 251 -66.32 251 -67 251 C-69.46468667 244.31013618 -69.29634391 237.81744692 -69.25 230.75 C-69.26160156 229.00396484 -69.26160156 229.00396484 -69.2734375 227.22265625 C-69.25904998 220.79862936 -68.75188882 214.83662086 -67.47167969 208.54589844 C-66.74273636 204.61141553 -66.55605136 200.74365947 -66.5 196.75 C-66.45875 195.99976563 -66.4175 195.24953125 -66.375 194.4765625 C-66.30173879 189.22007085 -67.51335039 186.33848619 -71.18115234 182.56347656 C-74.24337849 179.93119518 -77.53435331 177.94432607 -81.0625 176 C-81.80693359 175.57412598 -82.55136719 175.14825195 -83.31835938 174.70947266 C-86.73854784 172.76565089 -90.18583394 170.88632584 -93.68359375 169.0859375 C-104.84726725 163.32658651 -113.43758443 157.08726092 -117.7421875 144.8984375 C-120.2865186 135.87129017 -119.04148877 127.54282243 -114.5703125 119.39453125 C-110.61439394 113.20479798 -110.61439394 113.20479798 -107 112 C-107.0825 113.03125 -107.165 114.0625 -107.25 115.125 C-106.89932131 120.56051971 -104.51496107 123.18204672 -101.125 127.25 C-98.56862319 129.35525149 -96.13957084 130.02476546 -93 131 C-88.63920933 121.87608382 -85.44952152 114.67898424 -87.8125 104.5 C-88.4003125 103.2625 -88.4003125 103.2625 -89 102 C-89.99 101.67 -90.98 101.34 -92 101 C-92 100.34 -92 99.68 -92 99 C-83.21436549 99.84743325 -75.9630874 102.47110075 -69 108 C-66.46105097 111.25070462 -64 114.75732877 -64 119 C-63.01 119.495 -63.01 119.495 -62 120 C-62.33 120.66 -62.66 121.32 -63 122 C-62.34 122 -61.68 122 -61 122 C-59.82754226 125.51737321 -59.86733715 128.3575132 -59.875 132.0625 C-59.87113281 133.93615234 -59.87113281 133.93615234 -59.8671875 135.84765625 C-60 139 -60 139 -61 141 C-61.66 141 -62.32 141 -63 141 C-63.11214844 141.85851562 -63.22429687 142.71703125 -63.33984375 143.6015625 C-64.02648164 147.1363256 -65.13294687 150.07603124 -66.5625 153.375 C-67.01753906 154.43460938 -67.47257812 155.49421875 -67.94140625 156.5859375 C-68.29074219 157.38257813 -68.64007813 158.17921875 -69 159 C-69.66 158.67 -70.32 158.34 -71 158 C-71.625 155.4375 -71.625 155.4375 -72 153 C-72.33 153.33 -72.66 153.66 -73 154 C-72.9674933 155.54259057 -72.89860206 157.08447126 -72.8125 158.625 C-72.72852354 163.93841993 -73.99620092 166.68203882 -77 171 C-75.73299277 171.9841125 -74.4612381 172.96211497 -73.1875 173.9375 C-72.47980469 174.48277344 -71.77210938 175.02804688 -71.04296875 175.58984375 C-68.27575272 177.49991065 -66.36214289 178 -63 178 C-62.835 176.845 -62.67 175.69 -62.5 174.5 C-60.51147837 165.47297014 -55.47508298 156.48734369 -50.3125 148.875 C-43.18019688 137.83920666 -39.67767965 122.30683141 -41.5 109.25 C-43.44544599 101.03451789 -47.13980838 92.10103473 -54.0859375 86.9296875 C-57.71150881 85.16869572 -61.11989708 85.06780679 -65 86 C-67.73497743 87.20673902 -70.36386141 88.59242745 -73 90 C-90.59460425 99.29210216 -104.89572247 102.59410033 -125 100 C-125 99.34 -125 98.68 -125 98 C-122.6047793 95.6047793 -121.42947655 95.00894743 -118 94.9375 C-117.01 94.958125 -116.02 94.97875 -115 95 C-113.65812182 94.3507041 -112.32520503 93.68268138 -111 93 C-109.989375 92.9175 -108.97875 92.835 -107.9375 92.75 C-98.83276817 91.58521554 -91.36947811 84.85694135 -84.609375 79.17578125 C-75.6834422 71.73304986 -65.13497666 65.95031565 -53.10546875 66.6953125 C-42.28082637 68.26177281 -35.37931128 74.56691776 -28.625 82.9375 C-22.62438781 91.56549889 -21.12748792 100.704255 -20 111 C-18.84546549 97.65871229 -22.63371994 84.43091999 -31 74 C-32.14273109 72.83029457 -33.30685066 71.68073066 -34.5 70.5625 C-35.325 69.716875 -36.15 68.87125 -37 68 C-36.72425181 64.76226 -35.53157014 63.19310596 -33.19140625 61.0390625 C-32.61406738 60.49266113 -32.03672852 59.94625977 -31.44189453 59.38330078 C-30.82169434 58.80306152 -30.20149414 58.22282227 -29.5625 57.625 C-13.35033799 41.87498158 -2.19033889 22.77952442 0 0 Z M2 7 C3 9 3 9 3 9 Z M-21 112 C-21 114.64 -21 117.28 -21 120 C-20.67 120 -20.34 120 -20 120 C-20 117.36 -20 114.72 -20 112 C-20.33 112 -20.66 112 -21 112 Z M-72 133 C-72 137.29 -72 141.58 -72 146 C-73.32 145.01 -74.64 144.02 -76 143 C-75.67 144.98 -75.34 146.96 -75 149 C-73.68 149 -72.36 149 -71 149 C-70.17377329 143.39436958 -69.93204344 138.57710648 -71 133 C-71.33 133 -71.66 133 -72 133 Z M-62 137 C-61 139 -61 139 -61 139 Z M-6 139 C-5 142 -5 142 -5 142 Z M-101 152 C-100 154 -100 154 -100 154 Z M-98 156 C-97.34 157.32 -96.68 158.64 -96 160 C-95.34 159.67 -94.68 159.34 -94 159 C-95.32 158.01 -96.64 157.02 -98 156 Z M-93 161 C-92.67 161.66 -92.34 162.32 -92 163 C-91.34 162.67 -90.68 162.34 -90 162 C-90.99 161.67 -91.98 161.34 -93 161 Z M-90 163 C-89.67 163.66 -89.34 164.32 -89 165 C-88.34 164.67 -87.68 164.34 -87 164 C-87.99 163.67 -88.98 163.34 -90 163 Z M32 281 C33 283 33 283 33 283 Z M-33 283 C-32.34 283.66 -31.68 284.32 -31 285 C-30.67 284.34 -30.34 283.68 -30 283 C-30.99 283 -31.98 283 -33 283 Z M-14 283 C-13 285 -13 285 -13 285 Z M9 283 C10 285 10 285 10 285 Z M33 285 C33 291.93 33 298.86 33 306 C33.33 306 33.66 306 34 306 C34 299.07 34 292.14 34 285 C33.67 285 33.34 285 33 285 Z M48 285 C48 285.66 48 286.32 48 287 C48.66 286.67 49.32 286.34 50 286 C49.34 285.67 48.68 285.34 48 285 Z M10 286 C11 290 11 290 11 290 Z M50 287 C52.17424117 289.50037734 53.73045798 290.43628586 57 291 C54.82575883 288.49962266 53.26954202 287.56371414 50 287 Z M-101 289 C-101 291.64 -101 294.28 -101 297 C-100.67 297 -100.34 297 -100 297 C-100 294.36 -100 291.72 -100 289 C-100.33 289 -100.66 289 -101 289 Z M-96 289 C-96.99 289.33 -97.98 289.66 -99 290 C-99.33 293.63 -99.66 297.26 -100 301 C-98.515 301.99 -98.515 301.99 -97 303 C-96.814375 304.2065625 -96.814375 304.2065625 -96.625 305.4375 C-96.23280483 308.22952396 -96.23280483 308.22952396 -93.5625 309.8125 C-91.16827661 311.14015367 -91.16827661 311.14015367 -89 311 C-88.51292894 301.06707613 -88.51292894 301.06707613 -92 292 C-93.84188612 289.94729537 -93.84188612 289.94729537 -96 289 Z M-50 290 C-53.43519517 292.0706428 -53.43519517 292.0706428 -56 295 C-56.53255567 298.7174474 -56.35275316 302.26996191 -56 306 C-51.18790099 308.29045014 -51.18790099 308.29045014 -46 309 C-44.15610741 305.31221482 -44.64173449 301.03357552 -45 297 C-46.53476758 292.64735497 -46.53476758 292.64735497 -50 290 Z M-13 290 C-12 292 -12 292 -12 292 Z M-9 291 C-8.67 291.99 -8.34 292.98 -8 294 C-8.99 293.67 -9.98 293.34 -11 293 C-11.99 293.495 -11.99 293.495 -13 294 C-13 298.62 -13 303.24 -13 308 C-12.34 308 -11.68 308 -11 308 C-8.9375 308.3125 -8.9375 308.3125 -7 309 C-6.67 309.99 -6.34 310.98 -6 312 C-5.67 312 -5.34 312 -5 312 C-3.56208516 304.81042579 -3.8063905 298.16165702 -5 291 C-6.32 291 -7.64 291 -9 291 Z M35 295 C35 295.83144531 35 296.66289062 35 297.51953125 C35 301.6796875 35 305.83984375 35 310 C39.73723609 309.00986197 39.73723609 309.00986197 43.625 306.375 C45 305 45 305 47.6875 304.8125 C48.450625 304.874375 49.21375 304.93625 50 305 C48.73625877 302.47251754 47.72794086 302.2656061 45.1875 301.125 C41.80205147 299.51403523 39.56718484 297.76466059 37 295 C36.34 295 35.68 295 35 295 Z M10 302 C10 303.98 10 305.96 10 308 C10.33 308 10.66 308 11 308 C11 306.02 11 304.04 11 302 C10.67 302 10.34 302 10 302 Z M50 305 C49.67 305.99 49.34 306.98 49 308 C50.32 307.34 51.64 306.68 53 306 C52.01 305.67 51.02 305.34 50 305 Z M73 305 C74 308 74 308 74 308 Z M62 311 C62.66 311.66 63.32 312.32 64 313 C64 312.34 64 311.68 64 311 C63.34 311 62.68 311 62 311 Z M-56 323 C-56 325.31 -56 327.62 -56 330 C-55.67 330 -55.34 330 -55 330 C-54.67 327.69 -54.34 325.38 -54 323 C-54.66 323 -55.32 323 -56 323 Z " fill="#036538" transform="translate(311,76)"/>
<path d="M0 0 C3 1 3 1 4 3 C4.32745704 24.63555426 -0.87804265 45.52661577 -12 64.125 C-13.54213479 66.81866306 -14 67.75466319 -14 70.9375 C-13.67 71.948125 -13.34 72.95875 -13 74 C-12.49877617 75.70797466 -11.99887912 77.416339 -11.5 79.125 C-11.11328125 80.36636719 -11.11328125 80.36636719 -10.71875 81.6328125 C-5.79179065 97.85964601 -8.20153176 115.79680582 -15.75 130.6875 C-18.95312185 136.25251979 -22.89822528 141.08117156 -27 146 C-30.33221613 150.20396949 -33.3525663 154.5077961 -36.1875 159.0625 C-39.54112577 164.43728415 -43.24267791 169.49584954 -47.0925293 174.52172852 C-52.86934391 182.059536 -52.86934391 182.059536 -55 191 C-55.99 191.33 -56.98 191.66 -58 192 C-58.66 192.66 -59.32 193.32 -60 194 C-60 193.01 -60 192.02 -60 191 C-61.32 191.33 -62.64 191.66 -64 192 C-64 191.01 -64 190.02 -64 189 C-64.99 188.67 -65.98 188.34 -67 188 C-68.32202148 186.546875 -68.32202148 186.546875 -69.68359375 184.75 C-72.97796336 180.77281217 -76.57586186 178.47254105 -81.0625 176 C-81.80693359 175.57412598 -82.55136719 175.14825195 -83.31835938 174.70947266 C-86.73854784 172.76565089 -90.18583394 170.88632584 -93.68359375 169.0859375 C-104.84726725 163.32658651 -113.43758443 157.08726092 -117.7421875 144.8984375 C-120.2865186 135.87129017 -119.04148877 127.54282243 -114.5703125 119.39453125 C-110.61439394 113.20479798 -110.61439394 113.20479798 -107 112 C-107.0825 113.03125 -107.165 114.0625 -107.25 115.125 C-106.89932131 120.56051971 -104.51496107 123.18204672 -101.125 127.25 C-98.56862319 129.35525149 -96.13957084 130.02476546 -93 131 C-88.63920933 121.87608382 -85.44952152 114.67898424 -87.8125 104.5 C-88.4003125 103.2625 -88.4003125 103.2625 -89 102 C-89.99 101.67 -90.98 101.34 -92 101 C-92 100.34 -92 99.68 -92 99 C-83.21436549 99.84743325 -75.9630874 102.47110075 -69 108 C-66.46105097 111.25070462 -64 114.75732877 -64 119 C-63.01 119.495 -63.01 119.495 -62 120 C-62.33 120.66 -62.66 121.32 -63 122 C-62.34 122 -61.68 122 -61 122 C-59.82754226 125.51737321 -59.86733715 128.3575132 -59.875 132.0625 C-59.87113281 133.93615234 -59.87113281 133.93615234 -59.8671875 135.84765625 C-60 139 -60 139 -61 141 C-61.66 141 -62.32 141 -63 141 C-63.11214844 141.85851562 -63.22429687 142.71703125 -63.33984375 143.6015625 C-64.02648164 147.1363256 -65.13294687 150.07603124 -66.5625 153.375 C-67.01753906 154.43460938 -67.47257812 155.49421875 -67.94140625 156.5859375 C-68.29074219 157.38257813 -68.64007813 158.17921875 -69 159 C-69.66 158.67 -70.32 158.34 -71 158 C-71.625 155.4375 -71.625 155.4375 -72 153 C-72.33 153.33 -72.66 153.66 -73 154 C-72.9674933 155.54259057 -72.89860206 157.08447126 -72.8125 158.625 C-72.72852354 163.93841993 -73.99620092 166.68203882 -77 171 C-75.73299277 171.9841125 -74.4612381 172.96211497 -73.1875 173.9375 C-72.47980469 174.48277344 -71.77210938 175.02804688 -71.04296875 175.58984375 C-68.27575272 177.49991065 -66.36214289 178 -63 178 C-62.835 176.845 -62.67 175.69 -62.5 174.5 C-60.51147837 165.47297014 -55.47508298 156.48734369 -50.3125 148.875 C-43.18019688 137.83920666 -39.67767965 122.30683141 -41.5 109.25 C-43.44544599 101.03451789 -47.13980838 92.10103473 -54.0859375 86.9296875 C-57.71150881 85.16869572 -61.11989708 85.06780679 -65 86 C-67.73497743 87.20673902 -70.36386141 88.59242745 -73 90 C-90.59460425 99.29210216 -104.89572247 102.59410033 -125 100 C-125 99.34 -125 98.68 -125 98 C-122.6047793 95.6047793 -121.42947655 95.00894743 -118 94.9375 C-117.01 94.958125 -116.02 94.97875 -115 95 C-113.65812182 94.3507041 -112.32520503 93.68268138 -111 93 C-109.989375 92.9175 -108.97875 92.835 -107.9375 92.75 C-98.83276817 91.58521554 -91.36947811 84.85694135 -84.609375 79.17578125 C-75.6834422 71.73304986 -65.13497666 65.95031565 -53.10546875 66.6953125 C-42.28082637 68.26177281 -35.37931128 74.56691776 -28.625 82.9375 C-22.62438781 91.56549889 -21.12748792 100.704255 -20 111 C-18.84546549 97.65871229 -22.63371994 84.43091999 -31 74 C-32.14273109 72.83029457 -33.30685066 71.68073066 -34.5 70.5625 C-35.325 69.716875 -36.15 68.87125 -37 68 C-36.72425181 64.76226 -35.53157014 63.19310596 -33.19140625 61.0390625 C-32.61406738 60.49266113 -32.03672852 59.94625977 -31.44189453 59.38330078 C-30.82169434 58.80306152 -30.20149414 58.22282227 -29.5625 57.625 C-13.35033799 41.87498158 -2.19033889 22.77952442 0 0 Z M2 7 C3 9 3 9 3 9 Z M-21 112 C-21 114.64 -21 117.28 -21 120 C-20.67 120 -20.34 120 -20 120 C-20 117.36 -20 114.72 -20 112 C-20.33 112 -20.66 112 -21 112 Z M-72 133 C-72 137.29 -72 141.58 -72 146 C-73.32 145.01 -74.64 144.02 -76 143 C-75.67 144.98 -75.34 146.96 -75 149 C-73.68 149 -72.36 149 -71 149 C-70.17377329 143.39436958 -69.93204344 138.57710648 -71 133 C-71.33 133 -71.66 133 -72 133 Z M-62 137 C-61 139 -61 139 -61 139 Z M-101 152 C-100 154 -100 154 -100 154 Z M-98 156 C-97.34 157.32 -96.68 158.64 -96 160 C-95.34 159.67 -94.68 159.34 -94 159 C-95.32 158.01 -96.64 157.02 -98 156 Z M-93 161 C-92.67 161.66 -92.34 162.32 -92 163 C-91.34 162.67 -90.68 162.34 -90 162 C-90.99 161.67 -91.98 161.34 -93 161 Z M-90 163 C-89.67 163.66 -89.34 164.32 -89 165 C-88.34 164.67 -87.68 164.34 -87 164 C-87.99 163.67 -88.98 163.34 -90 163 Z " fill="#036538" transform="translate(311,76)"/>
<path d="M0 0 C2.32095616 3.48143424 2.49514472 5.88903554 3 10 C3.30903983 11.33917261 3.62942911 12.67653254 4 14 C4.66 14 5.32 14 6 14 C6.2475 14.94875 6.495 15.8975 6.75 16.875 C8.20976456 20.52441139 8.6303408 20.46453473 12 22 C13.51537802 23.04044976 15.01414736 24.105304 16.5 25.1875 C20.28775813 27.88424951 24.13901601 30.27665584 28.1875 32.5625 C38.24061057 38.36237148 44.48091788 44.17547129 47.76831055 55.56298828 C50.62699345 66.39494691 51.45781111 77.19434027 48 88 C45 87 45 87 43.640625 84.8125 C43.18171875 83.884375 42.7228125 82.95625 42.25 82 C37.13342247 72.27975368 29.92535487 64.58119383 22.48779297 56.60107422 C19.91408728 53.83140538 17.36476883 51.03940811 14.8125 48.25 C13.88161616 47.23427808 12.95063666 46.21864381 12.01953125 45.203125 C11.35308594 44.47609375 10.68664062 43.7490625 10 43 C13.24762562 47.44478957 16.60759269 51.76501597 20.125 56 C47.88586202 89.94034564 47.88586202 89.94034564 47 105 C47.66 105 48.32 105 49 105 C49.495 108.465 49.495 108.465 50 112 C49.34 112 48.68 112 48 112 C47.67 112.66 47.34 113.32 47 114 C46.67128906 113.28714844 46.34257812 112.57429688 46.00390625 111.83984375 C45.52824219 110.88207031 45.05257812 109.92429687 44.5625 108.9375 C44.11003906 107.99777344 43.65757812 107.05804688 43.19140625 106.08984375 C37.44856436 97.99253906 28.90520847 94.26072087 20 90.5 C4.91062688 84.12767075 -5.37798864 76.11832758 -11.9375 60.6875 C-17.69557962 44.28864486 -14.3039278 28.01815246 -6.99609375 12.71875 C-1.48299956 1.48299956 -1.48299956 1.48299956 0 0 Z " fill="#87BB43" transform="translate(188,220)"/>
<path d="M0 0 C8.78563451 0.84743325 16.0369126 3.47110075 23 9 C25.53894903 12.25070462 28 15.75732877 28 20 C28.66 20.33 29.32 20.66 30 21 C29.67 21.66 29.34 22.32 29 23 C29.66 23 30.32 23 31 23 C32.17245774 26.51737321 32.13266285 29.3575132 32.125 33.0625 C32.12886719 34.93615234 32.12886719 34.93615234 32.1328125 36.84765625 C32 40 32 40 31 42 C30.34 42 29.68 42 29 42 C28.88785156 42.85851562 28.77570313 43.71703125 28.66015625 44.6015625 C27.97351836 48.1363256 26.86705313 51.07603124 25.4375 54.375 C24.98246094 55.43460938 24.52742188 56.49421875 24.05859375 57.5859375 C23.70925781 58.38257813 23.35992187 59.17921875 23 60 C22.01 59.505 22.01 59.505 21 59 C20.375 56.4375 20.375 56.4375 20 54 C19.67 54.33 19.34 54.66 19 55 C19.0325067 56.54259057 19.10139794 58.08447126 19.1875 59.625 C19.27147646 64.93841993 18.00379908 67.68203882 15 72 C15.53109375 72.38671875 16.0621875 72.7734375 16.609375 73.171875 C27.29849118 81.05217233 27.29849118 81.05217233 29 88 C29.125 90.875 29.125 90.875 29 93 C28.67 92.01 28.34 91.02 28 90 C27.01 89.67 26.02 89.34 25 89 C23.67797852 87.546875 23.67797852 87.546875 22.31640625 85.75 C19.02203664 81.77281217 15.42413814 79.47254105 10.9375 77 C10.19306641 76.57412598 9.44863281 76.14825195 8.68164062 75.70947266 C5.26145216 73.76565089 1.81416606 71.88632584 -1.68359375 70.0859375 C-12.84726725 64.32658651 -21.43758443 58.08726092 -25.7421875 45.8984375 C-28.2865186 36.87129017 -27.04148877 28.54282243 -22.5703125 20.39453125 C-18.61439394 14.20479798 -18.61439394 14.20479798 -15 13 C-15.0825 14.03125 -15.165 15.0625 -15.25 16.125 C-14.89932131 21.56051971 -12.51496107 24.18204672 -9.125 28.25 C-6.56862319 30.35525149 -4.13957084 31.02476546 -1 32 C3.36079067 22.87608382 6.55047848 15.67898424 4.1875 5.5 C3.795625 4.675 3.40375 3.85 3 3 C2.01 2.67 1.02 2.34 0 2 C0 1.34 0 0.68 0 0 Z M20 34 C20 38.29 20 42.58 20 47 C18.68 46.01 17.36 45.02 16 44 C16.33 45.98 16.66 47.96 17 50 C18.32 50 19.64 50 21 50 C21.82622671 44.39436958 22.06795656 39.57710648 21 34 C20.67 34 20.34 34 20 34 Z M30 38 C31 40 31 40 31 40 Z M-9 53 C-8 55 -8 55 -8 55 Z M-6 57 C-5.34 58.32 -4.68 59.64 -4 61 C-3.34 60.67 -2.68 60.34 -2 60 C-3.32 59.01 -4.64 58.02 -6 57 Z M-1 62 C-0.67 62.66 -0.34 63.32 0 64 C0.66 63.67 1.32 63.34 2 63 C1.01 62.67 0.02 62.34 -1 62 Z M2 64 C2.33 64.66 2.66 65.32 3 66 C3.66 65.67 4.32 65.34 5 65 C4.01 64.67 3.02 64.34 2 64 Z " fill="#87BB44" transform="translate(219,175)"/>
<path d="M0 0 C3 1 3 1 4 3 C4.32745704 24.63555426 -0.87804265 45.52661577 -12 64.125 C-13.54213479 66.81866306 -14 67.75466319 -14 70.9375 C-13.67 71.948125 -13.34 72.95875 -13 74 C-12.49877617 75.70797466 -11.99887912 77.416339 -11.5 79.125 C-11.11328125 80.36636719 -11.11328125 80.36636719 -10.71875 81.6328125 C-5.79179065 97.85964601 -8.20153176 115.79680582 -15.75 130.6875 C-24.01193182 145.00397727 -24.01193182 145.00397727 -30 147 C-28.39416472 142.07300539 -26.71761521 137.17948165 -24.9375 132.3125 C-24.59976562 131.38308594 -24.26203125 130.45367187 -23.9140625 129.49609375 C-23.22620383 127.61771046 -22.52306635 125.74491144 -21.8125 123.875 C-20.69653136 119.92618788 -20.27892856 116.08662777 -20 112 C-19.93425781 111.18789062 -19.86851562 110.37578125 -19.80078125 109.5390625 C-19.23770111 96.60763572 -22.892126 84.10874419 -31 74 C-32.14273109 72.83029457 -33.30685066 71.68073066 -34.5 70.5625 C-35.325 69.716875 -36.15 68.87125 -37 68 C-36.72425181 64.76226 -35.53157014 63.19310596 -33.19140625 61.0390625 C-32.61406738 60.49266113 -32.03672852 59.94625977 -31.44189453 59.38330078 C-30.82169434 58.80306152 -30.20149414 58.22282227 -29.5625 57.625 C-13.35033799 41.87498158 -2.19033889 22.77952442 0 0 Z M2 7 C3 9 3 9 3 9 Z " fill="#8DC144" transform="translate(311,76)"/>
<path d="M0 0 C1.66015625 1.03515625 1.66015625 1.03515625 4.03515625 3.16015625 C4.03515625 3.82015625 4.03515625 4.48015625 4.03515625 5.16015625 C6.34515625 6.15015625 8.65515625 7.14015625 11.03515625 8.16015625 C11.03515625 8.82015625 11.03515625 9.48015625 11.03515625 10.16015625 C12.35515625 10.82015625 13.67515625 11.48015625 15.03515625 12.16015625 C13.70525815 16.14985055 11.79166307 17.05484531 8.34765625 19.41015625 C7.31253906 20.1371875 6.27742188 20.86421875 5.2109375 21.61328125 C2.03515625 23.16015625 2.03515625 23.16015625 -1.04296875 23.2109375 C-4.75057429 21.87758738 -6.42353567 20.03158263 -9.02734375 17.09765625 C-12.22000642 13.21866511 -12.22000642 13.21866511 -16.7734375 11.8515625 C-17.49660156 11.95339844 -18.21976563 12.05523437 -18.96484375 12.16015625 C-22.40641244 17.80926501 -21.69026983 25.19669193 -20.53515625 31.5078125 C-18.327253 38.3632158 -12.96210074 43.20860588 -7.96484375 48.16015625 C-6.56836575 47.70379089 -5.17269295 47.24496137 -3.77734375 46.78515625 C-2.95492187 46.51445312 -2.1325 46.24375 -1.28515625 45.96484375 C1.14576445 45.15831921 1.14576445 45.15831921 3.84765625 43.91015625 C6.35770191 43.04956917 7.57918609 43.25053767 10.03515625 44.16015625 C10.03515625 48.93678128 9.13839625 49.7121118 6.03515625 53.16015625 C5.43703125 53.84078125 4.83890625 54.52140625 4.22265625 55.22265625 C-1.98913866 60.72453174 -7.71309407 62.43908863 -15.96484375 62.16015625 C-22.44091586 61.09109038 -27.74950478 58.21436865 -31.96484375 53.16015625 C-36.94955548 44.86952171 -38.82125868 37.83402631 -37.96484375 28.16015625 C-35.00437728 17.29947354 -26.05934603 7.1185943 -16.65234375 1.22265625 C-11.34507826 -1.5124874 -5.62063156 -2.40245683 0 0 Z M-23.96484375 21.16015625 C-23.96484375 23.14015625 -23.96484375 25.12015625 -23.96484375 27.16015625 C-23.63484375 27.16015625 -23.30484375 27.16015625 -22.96484375 27.16015625 C-22.96484375 25.18015625 -22.96484375 23.20015625 -22.96484375 21.16015625 C-23.29484375 21.16015625 -23.62484375 21.16015625 -23.96484375 21.16015625 Z M-22.96484375 30.16015625 C-21.96484375 32.16015625 -21.96484375 32.16015625 -21.96484375 32.16015625 Z " fill="#046438" transform="translate(151.96484375,337.83984375)"/>
<path d="M0 0 C8.78563451 0.84743325 16.0369126 3.47110075 23 9 C25.53894903 12.25070462 28 15.75732877 28 20 C28.66 20.33 29.32 20.66 30 21 C29.67 21.66 29.34 22.32 29 23 C29.66 23 30.32 23 31 23 C32.17245774 26.51737321 32.13266285 29.3575132 32.125 33.0625 C32.12886719 34.93615234 32.12886719 34.93615234 32.1328125 36.84765625 C32 40 32 40 31 42 C30.34 42 29.68 42 29 42 C28.88785156 42.85851562 28.77570313 43.71703125 28.66015625 44.6015625 C27.97351836 48.1363256 26.86705313 51.07603124 25.4375 54.375 C24.98246094 55.43460938 24.52742188 56.49421875 24.05859375 57.5859375 C23.53458984 58.78089844 23.53458984 58.78089844 23 60 C22.34 59.67 21.68 59.34 21 59 C20.375 56.4375 20.375 56.4375 20 54 C19.34 54 18.68 54 18 54 C17.67 52.68 17.34 51.36 17 50 C18.485 49.505 18.485 49.505 20 49 C20.33 46.36 20.66 43.72 21 41 C20.67 42.98 20.34 44.96 20 47 C17 46 17 46 14.8125 43.1875 C11.84560123 39.43841883 8.30064185 37.88099643 4 36 C2.66342829 35.3398498 1.32916319 34.67494255 0 34 C0.41852577 30.02400519 1.46292971 26.81055497 3.0625 23.1875 C5.62769415 16.98439415 5.69293124 11.98493458 4.1875 5.5 C3.795625 4.675 3.40375 3.85 3 3 C2.01 2.67 1.02 2.34 0 2 C0 1.34 0 0.68 0 0 Z M30 38 C31 40 31 40 31 40 Z " fill="#026336" transform="translate(219,175)"/>
<path d="M0 0 C1.11375 0.495 1.11375 0.495 2.25 1 C5.13883312 2.22782871 5.13883312 2.22782871 9 2 C9.66 2.33 10.32 2.66 11 3 C11.53625 2.484375 12.0725 1.96875 12.625 1.4375 C15 0 15 0 17.8125 -0.125 C22.28906239 1.4549632 25.07504661 4.30956294 28 8 C28.495 9.485 28.495 9.485 29 11 C25.7 13.97 22.4 16.94 19 20 C13 18 13 18 12 17 C10.26691972 20.46616056 10.5214923 24.210219 11 28 C12.74348693 31.3669115 12.74348693 31.3669115 15 34 C15.66 34.99 16.32 35.98 17 37 C16.43152344 37.37511719 15.86304688 37.75023437 15.27734375 38.13671875 C10.44969176 41.33634786 5.69256409 44.60537917 1 48 C-3.20734796 44.12481109 -5.60976107 41.16643337 -6.31884766 35.4128418 C-6.365979 34.06959839 -6.365979 34.06959839 -6.4140625 32.69921875 C-6.45273438 31.72275391 -6.49140625 30.74628906 -6.53125 29.74023438 C-6.5621875 28.73283203 -6.593125 27.72542969 -6.625 26.6875 C-6.66367188 25.66076172 -6.70234375 24.63402344 -6.7421875 23.57617188 C-6.83614897 21.05095735 -6.9218154 18.52574408 -7 16 C-8.98 16 -10.96 16 -13 16 C-13.33 14.68 -13.66 13.36 -14 12 C-13.3503125 11.45730469 -12.700625 10.91460937 -12.03125 10.35546875 C-11.1959375 9.64003906 -10.360625 8.92460937 -9.5 8.1875 C-8.6646875 7.47980469 -7.829375 6.77210938 -6.96875 6.04296875 C-4.65304689 4.1128338 -4.65304689 4.1128338 -5 1 C-3.68 1 -2.36 1 -1 1 C-0.67 0.67 -0.34 0.34 0 0 Z M8 5 C7.67 5.66 7.34 6.32 7 7 C7.99 6.67 8.98 6.34 10 6 C9.34 5.67 8.68 5.34 8 5 Z M8 15 C8 19.62 8 24.24 8 29 C8.33 29 8.66 29 9 29 C9 24.38 9 19.76 9 15 C8.67 15 8.34 15 8 15 Z " fill="#046538" transform="translate(174,352)"/>
<path d="M0 0 C4.81194827 2.45136987 7.51303497 5.21028957 10 10 C11.29047208 14.3398753 11.20311293 17.33424094 9.875 21.6875 C7.17078734 26.46494236 4.10726982 29.88825091 -1 32 C-5.93804153 32.70077817 -9.88883198 32.55558401 -14.375 30.3125 C-19.20359679 26.05873617 -21.76045229 22.82666303 -22.3125 16.3125 C-22.23358418 11.5512454 -20.78830186 7.84563956 -18 4 C-11.93358796 -0.82836877 -7.39131111 -1.62001339 0 0 Z " fill="#036438" transform="translate(264,103)"/>
<path d="M0 0 C3 1 3 1 4 3 C4.01498862 5.85383287 3.95350226 8.65276345 3.8125 11.5 C3.77133057 12.33700439 3.73016113 13.17400879 3.68774414 14.03637695 C3.12765369 22.92708472 1.21085655 31.39308403 -1 40 C-1.33 40 -1.66 40 -2 40 C-2.33 37.69 -2.66 35.38 -3 33 C-4.65 33 -6.3 33 -8 33 C-9.00217064 36.58327753 -9.00217064 36.58327753 -8 40 C-8.51949219 40.36351562 -9.03898437 40.72703125 -9.57421875 41.1015625 C-14.09730013 44.36219418 -17.62064189 47.56459248 -21 52 C-21.66 51.67 -22.32 51.34 -23 51 C-22.443125 50.29617187 -21.88625 49.59234375 -21.3125 48.8671875 C-9.6444876 33.76972551 -2.35572751 19.21777707 0 0 Z M2 7 C3 9 3 9 3 9 Z " fill="#8EBB4E" transform="translate(311,76)"/>
<path d="M0 0 C1.3921875 0.495 1.3921875 0.495 2.8125 1 C5.92029291 2.14967004 5.92029291 2.14967004 9 2 C9.33 2.99 9.66 3.98 10 5 C12.15025528 6.72804888 12.15025528 6.72804888 14.75 8.375 C20.75138616 12.464516 25.30984743 15.62478878 27 23 C27.125 25.875 27.125 25.875 27 28 C26.67 27.01 26.34 26.02 26 25 C25.01 24.67 24.02 24.34 23 24 C21.69775391 22.55566406 21.69775391 22.55566406 20.3515625 20.765625 C16.92883697 16.62622006 13.04821018 14.29754861 8.375 11.75 C6.88165496 10.91352151 5.38942942 10.07504066 3.8984375 9.234375 C2.87314941 8.65913086 2.87314941 8.65913086 1.82714844 8.07226562 C-0.23943051 6.85948974 -2.14250689 5.51351291 -4 4 C-1.69 4.33 0.62 4.66 3 5 C3 4.34 3 3.68 3 3 C2.01 2.67 1.02 2.34 0 2 C0 1.34 0 0.68 0 0 Z " fill="#83B14D" transform="translate(221,240)"/>
<path d="M0 0 C2.71770561 1.33839696 4.07692937 3.47168846 5.81640625 5.89453125 C3.15655015 9.33669797 -0.08647661 9.88957799 -4.18359375 10.89453125 C-4.18359375 11.55453125 -4.18359375 12.21453125 -4.18359375 12.89453125 C-6.16359375 13.55453125 -8.14359375 14.21453125 -10.18359375 14.89453125 C-11.74609375 13.08203125 -11.74609375 13.08203125 -13.18359375 10.89453125 C-11.9476883 7.1868149 -10.37985779 6.09383257 -7.37109375 3.64453125 C-6.49839844 2.9175 -5.62570312 2.19046875 -4.7265625 1.44140625 C-2.18359375 -0.10546875 -2.18359375 -0.10546875 0 0 Z " fill="#085F39" transform="translate(292.18359375,336.10546875)"/>
<path d="M0 0 C2.8125 0.4375 2.8125 0.4375 6 2 C8.34377416 6.30979717 9.47438151 11.09805775 9 16 C9.66 16 10.32 16 11 16 C11.33 18.31 11.66 20.62 12 23 C11.34 23 10.68 23 10 23 C9.67 23.66 9.34 24.32 9 25 C5.40476401 19.26884891 3.37035409 14.78982507 3 8 C1.35 7.67 -0.3 7.34 -2 7 C-2.33 6.01 -2.66 5.02 -3 4 C-1.5625 1.8125 -1.5625 1.8125 0 0 Z " fill="#84B843" transform="translate(226,309)"/>
<path d="M0 0 C3 1 3 1 4 3 C4.08767779 6.12837575 3.85617439 9.25105782 3.6875 12.375 C3.65205078 13.23867187 3.61660156 14.10234375 3.58007812 14.9921875 C3.53689453 15.8275 3.49371094 16.6628125 3.44921875 17.5234375 C3.41143311 18.28575684 3.37364746 19.04807617 3.3347168 19.83349609 C2.96693776 22.21400026 2.17907567 23.91314565 1 26 C-0.65 25.67 -2.3 25.34 -4 25 C-5.12345806 21.62962582 -4.93107951 21.24868314 -3.6875 18.125 C-1.56412849 12.23215706 -0.81287141 6.1873859 0 0 Z M2 7 C3 9 3 9 3 9 Z " fill="#8DB949" transform="translate(311,76)"/>
<path d="M0 0 C0.33 0 0.66 0 1 0 C1.33 2.31 1.66 4.62 2 7 C1.34 7 0.68 7 0 7 C0.33 7.99 0.66 8.98 1 10 C1.66 10 2.32 10 3 10 C3 9.01 3 8.02 3 7 C3.99 6.67 4.98 6.34 6 6 C4.6534852 10.83587034 2.64605666 14.25538023 -0.375 18.25 C-1.14585937 19.28640625 -1.91671875 20.3228125 -2.7109375 21.390625 C-4.79106523 23.76182862 -6.09434011 24.91203602 -9 26 C-7.08770895 20.13274338 -5.04184332 14.32511472 -2.91796875 8.53125 C-1.89269767 5.70411953 -0.92775463 2.86057679 0 0 Z " fill="#8ABC4F" transform="translate(290,197)"/>
<path d="M0 0 C0.7425 0.185625 1.485 0.37125 2.25 0.5625 C4.91703092 1.21888842 4.91703092 1.21888842 7 0.25 C7.66 0.1675 8.32 0.085 9 0 C13.0281542 3.1649783 14.86109233 6.03022107 16 11 C16.125 13.875 16.125 13.875 16 16 C15.67 15.01 15.34 14.02 15 13 C14.01 12.67 13.02 12.34 12 12 C10.60546875 10.51171875 10.60546875 10.51171875 9.1875 8.6875 C6.42924961 5.32091368 3.68156316 3.27906291 0 1 C0 0.67 0 0.34 0 0 Z " fill="#81AA52" transform="translate(232,252)"/>
<path d="M0 0 C3 0 3 0 7 2 C5.35 5.96 3.7 9.92 2 14 C1.34 13.67 0.68 13.34 0 13 C-0.625 10.4375 -0.625 10.4375 -1 8 C-1.66 8 -2.32 8 -3 8 C-3.33 6.68 -3.66 5.36 -4 4 C-3.01 3.67 -2.02 3.34 -1 3 C-0.67 2.01 -0.34 1.02 0 0 Z " fill="#106238" transform="translate(240,221)"/>
<path d="M0 0 C2.40027194 4.48050763 3.12716846 8.12702574 3.09765625 13.203125 C3.09443359 14.1828125 3.09121094 15.1625 3.08789062 16.171875 C3.07951172 17.18765625 3.07113281 18.2034375 3.0625 19.25 C3.05798828 20.28125 3.05347656 21.3125 3.04882812 22.375 C3.03706088 24.91672573 3.02062011 27.45833319 3 30 C2.67 30 2.34 30 2 30 C1.67 23.4 1.34 16.8 1 10 C-0.32 9.34 -1.64 8.68 -3 8 C-3.36923077 3.44615385 -3.36923077 3.44615385 -1.5 1.1875 C-1.005 0.795625 -0.51 0.40375 0 0 Z " fill="#90BB52" transform="translate(299,156)"/>
<path d="M0 0 C0.33 2.31 0.66 4.62 1 7 C0.34 7 -0.32 7 -1 7 C1.475 10.465 1.475 10.465 4 14 C3.01 14.495 3.01 14.495 2 15 C2 14.34 2 13.68 2 13 C1.34 13 0.68 13 0 13 C0 12.01 0 11.02 0 10 C-1.32 9.67 -2.64 9.34 -4 9 C-4 8.01 -4 7.02 -4 6 C-4.99 5.34 -5.98 4.68 -7 4 C-6.625 2.0625 -6.625 2.0625 -6 0 C-3.50907189 -1.24546405 -2.58919267 -0.7767578 0 0 Z " fill="#87AF50" transform="translate(199,257)"/>
<path d="M0 0 C2.97 0.495 2.97 0.495 6 1 C5.34 2.32 4.68 3.64 4 5 C3.34 5 2.68 5 2 5 C1.34 5.66 0.68 6.32 0 7 C-2.3828125 6.9765625 -2.3828125 6.9765625 -5.125 6.625 C-6.03507813 6.51414063 -6.94515625 6.40328125 -7.8828125 6.2890625 C-8.93082031 6.14597656 -8.93082031 6.14597656 -10 6 C-10 5.34 -10 4.68 -10 4 C-7.52653696 1.52653696 -6.29238832 1.01686856 -2.75 0.8125 C-1.38875 0.9053125 -1.38875 0.9053125 0 1 C0 0.67 0 0.34 0 0 Z " fill="#055932" transform="translate(196,170)"/>
<path d="M0 0 C1.5625 1.4375 1.5625 1.4375 3 4 C3.11734422 9.15336683 2.01105192 14.26811314 0 19 C-0.66 19.33 -1.32 19.66 -2 20 C-3.04808041 21.97522846 -4.0520411 23.97481509 -5 26 C-5.33 25.34 -5.66 24.68 -6 24 C-5.24758408 22.16174464 -4.4217984 20.35328719 -3.5625 18.5625 C-1.18624331 13.14227813 -0.55227961 8.95355796 -0.921875 3.08203125 C-0.94765625 2.39496094 -0.9734375 1.70789063 -1 1 C-0.67 0.67 -0.34 0.34 0 0 Z " fill="#15653F" transform="translate(225,181)"/>
<path d="M0 0 C0.33 0 0.66 0 1 0 C1.33 2.31 1.66 4.62 2 7 C2.99 7.33 3.98 7.66 5 8 C5.25 10.25 5.25 10.25 5 13 C3.125 15.125 3.125 15.125 1 17 C0.34 17.99 -0.32 18.98 -1 20 C-1.11044961 13.26257354 -0.70132913 6.70019789 0 0 Z " fill="#7DB444" transform="translate(292,177)"/>
<path d="M0 0 C0 0.99 0 1.98 0 3 C0.66 3 1.32 3 2 3 C2.33 5.31 2.66 7.62 3 10 C2.34 10 1.68 10 1 10 C0.67 10.66 0.34 11.32 0 12 C-0.83848804 10.54462432 -1.67063934 9.08559627 -2.5 7.625 C-3.19609375 6.40683594 -3.19609375 6.40683594 -3.90625 5.1640625 C-5 3 -5 3 -5 1 C-2 0 -2 0 0 0 Z " fill="#6ABB3B" transform="translate(235,322)"/>
<path d="M0 0 C0.578125 1.89453125 0.578125 1.89453125 1 4 C0.00795408 5.33926199 -0.99426222 6.67098936 -2 8 C-3.59856511 12.07829049 -4.79743206 16.29101219 -6 20.5 C-6.495 21.7375 -6.495 21.7375 -7 23 C-7.99 23.33 -8.98 23.66 -10 24 C-7.90591324 15.34444139 -4.11688697 7.82772482 0 0 Z " fill="#0F5C38" transform="translate(258,229)"/>
<path d="M0 0 C1.75128818 0.28382946 3.50100003 0.57739529 5.25 0.875 C6.71179688 1.11863281 6.71179688 1.11863281 8.203125 1.3671875 C10.77264117 1.94855848 12.72071056 2.70840265 15 4 C14.67 4.66 14.34 5.32 14 6 C13.01 5.67 12.02 5.34 11 5 C9.68 5 8.36 5 7 5 C6.34 5.66 5.68 6.32 5 7 C4.731875 6.360625 4.46375 5.72125 4.1875 5.0625 C3.11332248 2.66868314 3.11332248 2.66868314 0 2 C0 1.34 0 0.68 0 0 Z " fill="#0C5E39" transform="translate(219,175)"/>
<path d="M0 0 C0.66 0.66 1.32 1.32 2 2 C1.34 2 0.68 2 0 2 C-0.268125 2.598125 -0.53625 3.19625 -0.8125 3.8125 C-2.77784558 7.43287343 -5.12477541 9.56063087 -9 11 C-12.25 11.125 -12.25 11.125 -15 11 C-11.25 9 -11.25 9 -9 9 C-8.67 8.01 -8.34 7.02 -8 6 C-7.01 6 -6.02 6 -5 6 C-5 5.34 -5 4.68 -5 4 C-4.34 4 -3.68 4 -3 4 C-2.67 3.01 -2.34 2.02 -2 1 C-1.34 0.67 -0.68 0.34 0 0 Z " fill="#0E5C38" transform="translate(383,388)"/>
<path d="M0 0 C0.66 1.32 1.32 2.64 2 4 C3.3050581 5.68889872 4.63360658 7.3603279 6 9 C4.02 9.99 4.02 9.99 2 11 C2 14.96 2 18.92 2 23 C1.34 23 0.68 23 0 23 C0 15.41 0 7.82 0 0 Z " fill="#03512C" transform="translate(345,361)"/>
<path d="M0 0 C0.66 0 1.32 0 2 0 C3.32421875 1.42578125 3.32421875 1.42578125 4.6875 3.3125 C5.14511719 3.92738281 5.60273438 4.54226562 6.07421875 5.17578125 C6.53248047 6.07876953 6.53248047 6.07876953 7 7 C6.67 7.99 6.34 8.98 6 10 C6 10.99 6 11.98 6 13 C6.66 13 7.32 13 8 13 C7.67 15.31 7.34 17.62 7 20 C6.67 20 6.34 20 6 20 C5.60167969 18.46279297 5.60167969 18.46279297 5.1953125 16.89453125 C4.83870972 15.53381011 4.48192949 14.17313547 4.125 12.8125 C3.95097656 12.13896484 3.77695312 11.46542969 3.59765625 10.77148438 C2.62130199 7.0649543 1.5177456 3.52089633 0 0 Z " fill="#84AD51" transform="translate(285,156)"/>
<path d="M0 0 C-0.73605469 -0.02320313 -1.47210938 -0.04640625 -2.23046875 -0.0703125 C-3.69419922 -0.09738281 -3.69419922 -0.09738281 -5.1875 -0.125 C-6.63189453 -0.15980469 -6.63189453 -0.15980469 -8.10546875 -0.1953125 C-11.15764834 0.01063754 -13.20816783 0.8035005 -16 2 C-18.66572015 2.49313497 -21.29815717 2.72523632 -24 3 C-21.72891531 -0.12274144 -18.93135439 -0.84579119 -15.2578125 -1.65234375 C-9.72443685 -2.50436872 -4.96295742 -2.81681367 0 0 Z " fill="#0D5838" transform="translate(264,145)"/>
<path d="M0 0 C-3.75 3 -3.75 3 -6 3 C-6 3.66 -6 4.32 -6 5 C-7.98 5.66 -9.96 6.32 -12 7 C-12 5.68 -12 4.36 -12 3 C-8.5278135 0.32145613 -4.21972219 -2.1098611 0 0 Z " fill="#10603A" transform="translate(294,344)"/>
<path d="M0 0 C1.98 0.99 3.96 1.98 6 3 C6 3.99 6 4.98 6 6 C6.99 6 7.98 6 9 6 C9.33 5.01 9.66 4.02 10 3 C10 5.64 10 8.28 10 11 C6.56618799 9.855396 5.41427241 8.27405536 3.20703125 5.5 C1.9062097 3.88344506 0.5058335 2.42657911 -1 1 C-0.67 0.67 -0.34 0.34 0 0 Z " fill="#1A633B" transform="translate(229,211)"/>
<path d="M0 0 C1.5 1.1875 1.5 1.1875 3 3 C3.1875 5.6875 3.1875 5.6875 3 8 C2.34 8 1.68 8 1 8 C1 8.99 1 9.98 1 11 C0.01 11.33 -0.98 11.66 -2 12 C-1.85962479 10.18706911 -1.71255111 8.3746557 -1.5625 6.5625 C-1.48128906 5.55316406 -1.40007812 4.54382813 -1.31640625 3.50390625 C-1 1 -1 1 0 0 Z " fill="#8CC242" transform="translate(292,196)"/>
<path d="M0 0 C0.33 0 0.66 0 1 0 C1.20140476 3.62528568 0.85776765 5.86501708 -1 9 C-2.65 8.67 -4.3 8.34 -6 8 C-6.33 7.01 -6.66 6.02 -7 5 C-6.360625 4.87625 -5.72125 4.7525 -5.0625 4.625 C-4.381875 4.41875 -3.70125 4.2125 -3 4 C-2.67 3.34 -2.34 2.68 -2 2 C-1.34 2.33 -0.68 2.66 0 3 C0 2.01 0 1.02 0 0 Z " fill="#A2CB3D" transform="translate(313,93)"/>
<path d="M0 0 C3 1 3 1 4 3 C4.04022391 5.3329866 4.04320247 7.66706666 4 10 C2.35 9.67 0.7 9.34 -1 9 C-0.67 6.03 -0.34 3.06 0 0 Z M2 7 C3 9 3 9 3 9 Z " fill="#A6BB58" transform="translate(311,76)"/>
<path d="M0 0 C1.04916965 3.40980136 1.37043252 6.44384783 1 10 C-0.875 12.375 -0.875 12.375 -3 14 C-3.66 14 -4.32 14 -5 14 C-3.45730076 9.27934033 -1.92205381 4.58335908 0 0 Z " fill="#74B356" transform="translate(286,209)"/>
<path d="M0 0 C1.60031344 3.20062687 0.03173691 5.72271806 -1 9 C-1.33 8.34 -1.66 7.68 -2 7 C-2.61875 7.185625 -3.2375 7.37125 -3.875 7.5625 C-6 8 -6 8 -8 7 C-6.0715309 3.14306181 -5.09713595 2.53642598 -1 1 C-0.67 0.67 -0.34 0.34 0 0 Z " fill="#8FC23F" transform="translate(200,203)"/>
<path d="M0 0 C0 3 0 3 -2 6 C-2.66 6 -3.32 6 -4 6 C-4.3403125 6.86625 -4.3403125 6.86625 -4.6875 7.75 C-6.33708262 10.57785592 -8.39710359 12.04782769 -11 14 C-11.66 14.66 -12.32 15.32 -13 16 C-12.42308522 12.83145253 -11.58353113 11.21773541 -9.27734375 8.984375 C-8.73916016 8.45585937 -8.20097656 7.92734375 -7.64648438 7.3828125 C-7.08251953 6.84398437 -6.51855469 6.30515625 -5.9375 5.75 C-5.36966797 5.19570312 -4.80183594 4.64140625 -4.21679688 4.0703125 C-2.81787531 2.70665786 -1.40980886 1.35239583 0 0 Z " fill="#8CB559" transform="translate(287,128)"/>
<path d="M0 0 C3.3 0.33 6.6 0.66 10 1 C10 3.31 10 5.62 10 8 C8.51714758 7.04737966 7.03881799 6.08771595 5.5625 5.125 C4.73878906 4.59132813 3.91507813 4.05765625 3.06640625 3.5078125 C1 2 1 2 0 0 Z " fill="#87B24C" transform="translate(220,315)"/>
<path d="M0 0 C4.455 1.98 4.455 1.98 9 4 C8.01 4.99 7.02 5.98 6 7 C3.0625 5.6875 3.0625 5.6875 0 4 C-0.33 3.01 -0.66 2.02 -1 1 C-0.67 0.67 -0.34 0.34 0 0 Z " fill="#87B942" transform="translate(231,247)"/>
<path d="M0 0 C1.65 1.32 3.3 2.64 5 4 C3.6000347 6.79993061 1.47717087 8.14212185 -1 10 C-1.33 10 -1.66 10 -2 10 C-2.25 3.375 -2.25 3.375 0 0 Z M-1 4 C0 7 0 7 0 7 Z " fill="#0A4D35" transform="translate(306,211)"/>
<path d="M0 0 C0.99 0.33 1.98 0.66 3 1 C2.67 1.99 2.34 2.98 2 4 C2.63808594 4.04898437 3.27617187 4.09796875 3.93359375 4.1484375 C4.75988281 4.22320312 5.58617187 4.29796875 6.4375 4.375 C7.26121094 4.44460938 8.08492188 4.51421875 8.93359375 4.5859375 C9.95646484 4.79089844 9.95646484 4.79089844 11 5 C11.33 5.66 11.66 6.32 12 7 C2.19156581 6.38029501 2.19156581 6.38029501 -2 3 C-2 2.34 -2 1.68 -2 1 C-1.34 0.67 -0.68 0.34 0 0 Z " fill="#0E633C" transform="translate(348,392)"/>
<path d="M0 0 C0.3403125 0.8353125 0.3403125 0.8353125 0.6875 1.6875 C2.35896766 4.63246684 4.55276352 6.68156544 7 9 C2.25 12.875 2.25 12.875 0 14 C0 13.01 0 12.02 0 11 C0.99 10.34 1.98 9.68 3 9 C3 8.34 3 7.68 3 7 C2.01 7.33 1.02 7.66 0 8 C-1.09658936 4.71023192 -0.79953138 3.28696233 0 0 Z " fill="#104E37" transform="translate(299,379)"/>
<path d="M0 0 C0.99 0.66 1.98 1.32 3 2 C1.63016497 5.16115776 1.0109362 5.9927092 -2 8 C-2.33 7.01 -2.66 6.02 -3 5 C-3.99 5 -4.98 5 -6 5 C-5.195625 4.360625 -4.39125 3.72125 -3.5625 3.0625 C-1.7249496 1.59396498 -1.7249496 1.59396498 0 0 Z " fill="#0D643D" transform="translate(160,381)"/>
<path d="M0 0 C0.99 0.33 1.98 0.66 3 1 C0.4014643 5.37648119 -2.29395884 9.68958661 -5 14 C-6.08784335 10.68604014 -6.07262544 10.16419665 -4.5625 6.75 C-4.046875 5.8425 -3.53125 4.935 -3 4 C-2.34 4 -1.68 4 -1 4 C-0.67 2.68 -0.34 1.36 0 0 Z " fill="#095433" transform="translate(253,309)"/>
<path d="M0 0 C2.9375 0.75 2.9375 0.75 6 2 C6.5625 3.8125 6.5625 3.8125 7 6 C7.845625 6.845625 8.69125 7.69125 9.5625 8.5625 C10.366875 9.366875 11.17125 10.17125 12 11 C12 11.99 12 12.98 12 14 C7.40312076 9.64157559 3.54058858 5.25723759 0 0 Z " fill="#85AD54" transform="translate(202,266)"/>
<path d="M0 0 C0.99 1.32 1.98 2.64 3 4 C2.05125 4.4125 1.1025 4.825 0.125 5.25 C-3.00716624 7.0040131 -3.86500606 7.70851757 -5 11 C-5.99 10.67 -6.98 10.34 -8 10 C-5.36 6.7 -2.72 3.4 0 0 Z " fill="#0D603C" transform="translate(299,263)"/>
<path d="M0 0 C0 0.33 0 0.66 0 1 C-1.65 1 -3.3 1 -5 1 C-5.33 1.99 -5.66 2.98 -6 4 C-7.175625 4.12375 -7.175625 4.12375 -8.375 4.25 C-11.14044802 4.71525923 -11.14044802 4.71525923 -12.1875 7 C-12.455625 7.66 -12.72375 8.32 -13 9 C-13.99 9.495 -13.99 9.495 -15 10 C-12.04011336 2.73482369 -7.51647313 -0.16340159 0 0 Z " fill="#10623F" transform="translate(340,352)"/>
<path d="M0 0 C3.74281699 2.38179263 6.97727468 4.74475735 10 8 C7.6875 8.6875 7.6875 8.6875 5 9 C3.1875 7.5625 3.1875 7.5625 2 6 C2.33 5.01 2.66 4.02 3 3 C2.01 2.67 1.02 2.34 0 2 C0 1.34 0 0.68 0 0 Z " fill="#8CB454" transform="translate(218,254)"/>
<path d="M0 0 C3.40843742 2.88406243 4.86591384 4.3708265 5.8125 8.8125 C5.9053125 10.3903125 5.9053125 10.3903125 6 12 C5.67 11.01 5.34 10.02 5 9 C4.01 8.67 3.02 8.34 2 8 C0.5522078 5.10441559 0 3.25811062 0 0 Z " fill="#6EAD4E" transform="translate(242,256)"/>
<path d="M0 0 C-8.261959 5.55580866 -8.261959 5.55580866 -13 6 C-11.68 5.34 -10.36 4.68 -9 4 C-9 3.01 -9 2.02 -9 1 C-5.47051709 -0.66670026 -3.71727674 -1.13583456 0 0 Z " fill="#0A5D3C" transform="translate(298,321)"/>
<path d="M0 0 C-3.3 3.63 -6.6 7.26 -10 11 C-10 6.96984588 -8.30459673 4.19037711 -6 1 C-2.68292683 -1.34146341 -2.68292683 -1.34146341 0 0 Z " fill="#0D5939" transform="translate(274,288)"/>
<path d="M0 0 C0.33 0 0.66 0 1 0 C2.46670113 5.22512279 3.22577402 9.5814234 3 15 C2.67 15 2.34 15 2 15 C1.731875 13.906875 1.46375 12.81375 1.1875 11.6875 C0.12336261 8.38307337 -0.34654664 7.05039578 -3 5 C-2.67 4.34 -2.34 3.68 -2 3 C-1.34 3 -0.68 3 0 3 C0 2.01 0 1.02 0 0 Z " fill="#81B24D" transform="translate(235,222)"/>
<path d="M0 0 C4.29425875 1.07356469 4.74740471 1.5084773 7 5 C6.01 5 5.02 5 4 5 C3.34 7.31 2.68 9.62 2 12 C1.67 12 1.34 12 1 12 C0.67 8.04 0.34 4.08 0 0 Z " fill="#003B1C" transform="translate(182,364)"/>
<path d="M0 0 C0.66 0.33 1.32 0.66 2 1 C2 1.99 2 2.98 2 4 C2.99 4.33 3.98 4.66 5 5 C4.67 5.66 4.34 6.32 4 7 C2.02 7 0.04 7 -2 7 C-2.6875 5.1875 -2.6875 5.1875 -3 3 C-1.5625 1.25 -1.5625 1.25 0 0 Z " fill="#10623E" transform="translate(163,361)"/>
<path d="M0 0 C0.66 0.66 1.32 1.32 2 2 C1.625 5.625 1.625 5.625 1 9 C0.01 8.67 -0.98 8.34 -2 8 C-2.875 6.1875 -2.875 6.1875 -3 4 C-1.5625 1.75 -1.5625 1.75 0 0 Z " fill="#88B354" transform="translate(235,299)"/>
<path d="M0 0 C0.66 0.33 1.32 0.66 2 1 C0.13701547 3.79447679 -1.74225301 5.84318442 -4.125 8.1875 C-5.21167969 9.26064453 -5.21167969 9.26064453 -6.3203125 10.35546875 C-6.87460937 10.89816406 -7.42890625 11.44085938 -8 12 C-8.66 11.67 -9.32 11.34 -10 11 C-6.7 7.37 -3.4 3.74 0 0 Z " fill="#0F5F3C" transform="translate(290,275)"/>
<path d="M0 0 C4.57792141 3.53748473 5.02048605 9.61267327 6 15 C3.62317631 12.86285601 2.40068998 11.06221946 1.3125 8.0625 C1.06113281 7.39347656 0.80976563 6.72445312 0.55078125 6.03515625 C0 4 0 4 0 0 Z " fill="#8EB45C" transform="translate(193,215)"/>
<path d="M0 0 C0 1.65 0 3.3 0 5 C-2.64 5 -5.28 5 -8 5 C-8 4.34 -8 3.68 -8 3 C-5.04518508 0.25624329 -4.22528092 0 0 0 Z " fill="#094B25" transform="translate(194,171)"/>
<path d="M0 0 C2.97246802 2.54782974 4.41535288 5.45340883 6 9 C6 9.66 6 10.32 6 11 C3.17621961 9.96461386 2.1756855 9.33380245 0.75 6.625 C0 4 0 4 0 0 Z " fill="#87B153" transform="translate(225,300)"/>
<path d="M0 0 C1.61949011 2.57213134 2.04408751 3.67669159 1.625 6.75 C1.41875 7.4925 1.2125 8.235 1 9 C0.01 8.67 -0.98 8.34 -2 8 C-2.33 7.01 -2.66 6.02 -3 5 C-2.67 4.34 -2.34 3.68 -2 3 C-2.66 2.67 -3.32 2.34 -4 2 C-2.68 1.34 -1.36 0.68 0 0 Z " fill="#0F6E2F" transform="translate(248,253)"/>
<path d="M0 0 C1.1055189 0.93590504 2.20935453 1.87379858 3.3125 2.8125 C3.92738281 3.33457031 4.54226563 3.85664063 5.17578125 4.39453125 C6.85424679 5.87172469 8.43882034 7.40039131 10 9 C9.67 9.66 9.34 10.32 9 11 C8.608125 10.54625 8.21625 10.0925 7.8125 9.625 C5.69167513 7.72357081 3.66957765 6.93795972 1 6 C1 5.01 1 4.02 1 3 C0.67 2.01 0.34 1.02 0 0 Z " fill="#10623A" transform="translate(272,149)"/>
<path d="M0 0 C0.99 0 1.98 0 3 0 C2.67 1.32 2.34 2.64 2 4 C0.68 4.33 -0.64 4.66 -2 5 C-2 5.66 -2 6.32 -2 7 C-3.32 6.34 -4.64 5.68 -6 5 C-5.38125 4.731875 -4.7625 4.46375 -4.125 4.1875 C-1.7004767 3.04443152 -1.7004767 3.04443152 0 0 Z " fill="#0B5434" transform="translate(294,393)"/>
<path d="M0 0 C2.125 0.375 2.125 0.375 4 1 C4.33 3.31 4.66 5.62 5 8 C2.69 6.02 0.38 4.04 -2 2 C-1.34 1.34 -0.68 0.68 0 0 Z " fill="#8DB54B" transform="translate(195,256)"/>
<path d="M0 0 C0 2.31 0 4.62 0 7 C-2.475 6.01 -2.475 6.01 -5 5 C-4.6875 3.0625 -4.6875 3.0625 -4 1 C-1 0 -1 0 0 0 Z " fill="#005E33" transform="translate(158,385)"/>
<path d="M0 0 C1.65 1.65 3.3 3.3 5 5 C4.401875 5.28875 3.80375 5.5775 3.1875 5.875 C0.80672208 7.04742026 0.80672208 7.04742026 -2 9 C-2 7.68 -2 6.36 -2 5 C-1.34 4.67 -0.68 4.34 0 4 C0 2.68 0 1.36 0 0 Z " fill="#87B44D" transform="translate(218,290)"/>
<path d="M0 0 C0.66 0.99 1.32 1.98 2 3 C1 6 1 6 -1 7 C-1.33 7.99 -1.66 8.98 -2 10 C-2.66 10 -3.32 10 -4 10 C-3.43454163 6.04179141 -2.19097652 3.3340947 0 0 Z " fill="#9AB94E" transform="translate(188,220)"/>
<path d="M0 0 C2.18994248 3.28491373 2.35277339 4.83095639 2.625 8.6875 C2.69976562 9.68136719 2.77453125 10.67523438 2.8515625 11.69921875 C2.92503906 12.83810547 2.92503906 12.83810547 3 14 C2.01 14.495 2.01 14.495 1 15 C-0.09506492 11.71480525 -0.09960608 9.26336585 -0.0625 5.8125 C-0.05347656 4.72582031 -0.04445312 3.63914062 -0.03515625 2.51953125 C-0.02355469 1.68808594 -0.01195312 0.85664063 0 0 Z " fill="#88B155" transform="translate(234,273)"/>
<path d="M0 0 C0.33 0.66 0.66 1.32 1 2 C-2.3 4.64 -5.6 7.28 -9 10 C-9.33 9.01 -9.66 8.02 -10 7 C-6.7 4.69 -3.4 2.38 0 0 Z " fill="#0E5B3C" transform="translate(267,256)"/>
<path d="M0 0 C2 2 2 2 2.5 4.5625 C2.665 5.366875 2.83 6.17125 3 7 C3.66 7.33 4.32 7.66 5 8 C3.35 8.33 1.7 8.66 0 9 C-1.10844919 5.67465243 -0.84454356 3.37817425 0 0 Z " fill="#0B5B37" transform="translate(316,230)"/>
<path d="M0 0 C0.33 0.66 0.66 1.32 1 2 C1.99 1.67 2.98 1.34 4 1 C4.33 2.98 4.66 4.96 5 7 C3.68 6.67 2.36 6.34 1 6 C1 5.34 1 4.68 1 4 C0.34 4 -0.32 4 -1 4 C-0.67 2.68 -0.34 1.36 0 0 Z " fill="#97C73E" transform="translate(297,181)"/>
<path d="M0 0 C3.63 0.33 7.26 0.66 11 1 C7.79619983 3.13586678 6.98060033 3.23132175 3.3125 3.125 C2.10013672 3.09792969 2.10013672 3.09792969 0.86328125 3.0703125 C-0.05904297 3.03550781 -0.05904297 3.03550781 -1 3 C-0.67 2.01 -0.34 1.02 0 0 Z " fill="#0E5E3C" transform="translate(198,174)"/>
<path d="M0 0 C0.66 0.33 1.32 0.66 2 1 C2 1.99 2 2.98 2 4 C3.32 4.33 4.64 4.66 6 5 C4.35 5.33 2.7 5.66 1 6 C0.566875 5.0409375 0.566875 5.0409375 0.125 4.0625 C-0.82823451 1.84793921 -0.82823451 1.84793921 -3 1 C-2.01 0.67 -1.02 0.34 0 0 Z " fill="#095735" transform="translate(311,393)"/>
<path d="M0 0 C1.33333333 2.66666667 2.66666667 5.33333333 4 8 C3.01 8.33 2.02 8.66 1 9 C-1.1875 7.5625 -1.1875 7.5625 -3 6 C-2.01 5.67 -1.02 5.34 0 5 C0 3.35 0 1.7 0 0 Z " fill="#055F4F" transform="translate(183,376)"/>
<path d="M0 0 C0.33 0.66 0.66 1.32 1 2 C0.06421005 4.35981813 -0.93347808 6.69631264 -2 9 C-3.32 8.67 -4.64 8.34 -6 8 C-4.02 5.36 -2.04 2.72 0 0 Z " fill="#0C603B" transform="translate(269,300)"/>
<path d="M0 0 C2.475 0.495 2.475 0.495 5 1 C5.33 3.64 5.66 6.28 6 9 C3.72494996 6.83328568 1.76424908 4.60436769 0 2 C0 1.34 0 0.68 0 0 Z " fill="#85AF4B" transform="translate(226,293)"/>
<path d="M0 0 C1.33333333 0.66666667 2.66666667 1.33333333 4 2 C4.70125 2.268125 5.4025 2.53625 6.125 2.8125 C8.67232367 4.42580499 9.1119086 6.18771058 10 9 C5.82117329 6.43571997 2.87494471 3.98069267 0 0 Z " fill="#87AF53" transform="translate(212,230)"/>
<path d="M0 0 C0.99 0 1.98 0 3 0 C3.33 0.66 3.66 1.32 4 2 C5.97522846 3.04808041 7.97481509 4.0520411 10 5 C10 5.33 10 5.66 10 6 C6.43855901 6.19785783 3.95545121 6.11103658 1 4 C0.25 1.875 0.25 1.875 0 0 Z " fill="#6EA94C" transform="translate(216,207)"/>
<path d="M0 0 C0.33 0 0.66 0 1 0 C1.33 2.31 1.66 4.62 2 7 C1.34 7 0.68 7 0 7 C-0.66 8.32 -1.32 9.64 -2 11 C-3 9 -3 9 -2.44140625 6.8359375 C-2.15136719 6.02382812 -1.86132812 5.21171875 -1.5625 4.375 C-1.27503906 3.55773437 -0.98757813 2.74046875 -0.69140625 1.8984375 C-0.46324219 1.27195313 -0.23507812 0.64546875 0 0 Z " fill="#69AA49" transform="translate(290,197)"/>
<path d="M0 0 C0.66 0.66 1.32 1.32 2 2 C-0.64738916 3.4606285 -1.89448334 4 -5 4 C-5.33 4.66 -5.66 5.32 -6 6 C-8.97 5.505 -8.97 5.505 -12 5 C-12 4.67 -12 4.34 -12 4 C-10.7625 3.71125 -9.525 3.4225 -8.25 3.125 C-5.27551258 2.38665206 -2.666144 1.55525067 0 0 Z " fill="#003A3A" transform="translate(157,381)"/>
<path d="M0 0 C0.33 0 0.66 0 1 0 C1.33 2.31 1.66 4.62 2 7 C0.02 7 -1.96 7 -4 7 C-2.68 4.69 -1.36 2.38 0 0 Z " fill="#095D34" transform="translate(262,309)"/>
<path d="M0 0 C2.97 0.495 2.97 0.495 6 1 C6 3.31 6 5.62 6 8 C3.87961365 5.38485683 1.86908256 2.80362384 0 0 Z " fill="#82B74F" transform="translate(279,148)"/>
<path d="M0 0 C0.33 0 0.66 0 1 0 C1.08886184 3.19902639 0.91058531 5.92677456 0 9 C-1.5625 7.75 -1.5625 7.75 -3 6 C-2.72963853 3.02602384 -2.14553974 2.14553974 0 0 Z " fill="#8ABC4B" transform="translate(278,139)"/>
<path d="M0 0 C2.93200474 2.85276137 5.64315404 5.65079784 8 9 C5 9 5 9 2.875 7.3125 C0.83027036 4.79066678 0.35401103 3.18609925 0 0 Z " fill="#165A3D" transform="translate(169,390)"/>
<path d="M0 0 C2.31 0.33 4.62 0.66 7 1 C4.94766315 3.2477975 3.99332739 4.0022242 1 5 C0.67 3.35 0.34 1.7 0 0 Z " fill="#065032" transform="translate(184,387)"/>
<path d="M0 0 C1.32 0.66 2.64 1.32 4 2 C3.67 2.99 3.34 3.98 3 5 C0.9375 5.6875 0.9375 5.6875 -1 6 C-1.66 5.01 -2.32 4.02 -3 3 C-2.34 3 -1.68 3 -1 3 C-0.67 2.01 -0.34 1.02 0 0 Z " fill="#075930" transform="translate(377,359)"/>
<path d="M0 0 C0.33 0.66 0.66 1.32 1 2 C-0.4375 4.625 -0.4375 4.625 -2 7 C-2.33 6.01 -2.66 5.02 -3 4 C-3.66 3.67 -4.32 3.34 -5 3 C-5 2.34 -5 1.68 -5 1 C-3.35 0.67 -1.7 0.34 0 0 Z " fill="#0A5D37" transform="translate(318,296)"/>
<path d="M0 0 C-2.68841859 2.25245881 -4.64641875 3.88213958 -8 5 C-8.33 4.01 -8.66 3.02 -9 2 C-5.86501708 0.14223235 -3.62528568 -0.20140476 0 0 Z " fill="#0B5C3B" transform="translate(243,162)"/>
<path d="M0 0 C0.75 1.75 0.75 1.75 1 4 C-0.8125 6.25 -0.8125 6.25 -3 8 C-3.66 8 -4.32 8 -5 8 C-3.62845496 5.04590299 -2.01136276 2.55991624 0 0 Z " fill="#0A5B3B" transform="translate(275,292)"/>
<path d="M0 0 C0.33 0 0.66 0 1 0 C1.20086443 3.71599191 1.1519437 4.77208445 -1 8 C-1.66 8 -2.32 8 -3 8 C-3.33 6.68 -3.66 5.36 -4 4 C-3.01 3.67 -2.02 3.34 -1 3 C-0.67 2.01 -0.34 1.02 0 0 Z " fill="#25832A" transform="translate(240,221)"/>
<path d="M0 0 C0 3 0 3 -2 6 C-4.625 7.1875 -4.625 7.1875 -7 8 C-5.50902342 4.2047869 -3.24299151 2.38957269 0 0 Z " fill="#10613E" transform="translate(287,354)"/>
<path d="M0 0 C1.65 0 3.3 0 5 0 C5 1.98 5 3.96 5 6 C3.31237149 4.3545622 1.6459651 2.68711423 0 1 C0 0.67 0 0.34 0 0 Z " fill="#85B054" transform="translate(217,282)"/>
<path d="M0 0 C0.33 0.66 0.66 1.32 1 2 C-0.99954129 4.99931194 -1.73795271 5.81380099 -5 7 C-5.99 6.67 -6.98 6.34 -8 6 C-5.36 4.02 -2.72 2.04 0 0 Z " fill="#115D3B" transform="translate(292,240)"/>
<path d="M0 0 C-0.66 1.98 -1.32 3.96 -2 6 C-3.5 4.625 -3.5 4.625 -5 3 C-5 2.34 -5 1.68 -5 1 C-2 0 -2 0 0 0 Z " fill="#0B6B31" transform="translate(287,207)"/>
<path d="M0 0 C2.69082872 0.17635452 5.32851446 0.61835921 8 1 C8 1.33 8 1.66 8 2 C5.69 2 3.38 2 1 2 C1 4.31 1 6.62 1 9 C0.67 9 0.34 9 0 9 C-0.87890625 2.84765625 -0.87890625 2.84765625 -1 1 C-0.67 0.67 -0.34 0.34 0 0 Z " fill="#156640" transform="translate(254,397)"/>
<path d="M0 0 C1.32 0 2.64 0 4 0 C4.66 1.32 5.32 2.64 6 4 C2.89448334 4 1.64738916 3.4606285 -1 2 C-0.67 1.34 -0.34 0.68 0 0 Z " fill="#066947" transform="translate(323,385)"/>
<path d="M0 0 C2.35171131 0.59861742 4.6859378 1.26924352 7 2 C7.33 2.66 7.66 3.32 8 4 C4.625 4.1875 4.625 4.1875 1 4 C0.34 3.01 -0.32 2.02 -1 1 C-0.67 0.67 -0.34 0.34 0 0 Z " fill="#15663F" transform="translate(182,384)"/>
<path d="M0 0 C0.66 0 1.32 0 2 0 C2.99 2.97 3.98 5.94 5 9 C4.34 9 3.68 9 3 9 C0 3.375 0 3.375 0 0 Z " fill="#8DAF56" transform="translate(177,280)"/>
<path d="M0 0 C1.32 1.32 2.64 2.64 4 4 C2.02 4.99 2.02 4.99 0 6 C0.66 6.33 1.32 6.66 2 7 C1.01 7 0.02 7 -1 7 C-0.67 4.69 -0.34 2.38 0 0 Z " fill="#87B24D" transform="translate(197,240)"/>
<path d="M0 0 C2.31 0.33 4.62 0.66 7 1 C5.68 2.32 4.36 3.64 3 5 C2.01 3.35 1.02 1.7 0 0 Z " fill="#003131" transform="translate(200,357)"/>
<path d="M0 0 C0.33 0 0.66 0 1 0 C1 2.97 1 5.94 1 9 C0.67 9 0.34 9 0 9 C0 6.03 0 3.06 0 0 Z " fill="#002A0E" transform="translate(282,379)"/>
<path d="M0 0 C1.485 0.99 1.485 0.99 3 2 C2.01 2 1.02 2 0 2 C0 1.34 0 0.68 0 0 Z " fill="#004020" transform="translate(234,358)"/>
<path d="" fill="#004747" transform="translate(0,0)"/>
<path d="" fill="#00471C" transform="translate(0,0)"/>
<path d="M0 0 C0.66 0 1.32 0 2 0 C1.67 0.66 1.34 1.32 1 2 C0.67 1.34 0.34 0.68 0 0 Z " fill="#004747" transform="translate(198,355)"/>
<path d="M0 0 C0.66 0 1.32 0 2 0 C1.67 0.66 1.34 1.32 1 2 C0.67 1.34 0.34 0.68 0 0 Z " fill="#000000" transform="translate(251,353)"/>
<path d="" fill="#004040" transform="translate(0,0)"/>
<path d="M0 0 C2 1 2 1 2 1 Z " fill="#000000" transform="translate(349,383)"/>
<path d="M0 0 C2 1 2 1 2 1 Z " fill="#000000" transform="translate(325,383)"/>
<path d="" fill="#000000" transform="translate(0,0)"/>
<path d="" fill="#000000" transform="translate(0,0)"/>
<path d="" fill="#000000" transform="translate(0,0)"/>
<path d="" fill="#000000" transform="translate(0,0)"/>
<path d="" fill="#000000" transform="translate(0,0)"/>
<path d="" fill="#008080" transform="translate(0,0)"/>
<path d="" fill="#000000" transform="translate(0,0)"/>
<path d="" fill="#000000" transform="translate(0,0)"/>
<path d="" fill="#008080" transform="translate(0,0)"/>
<path d="" fill="#000000" transform="translate(0,0)"/>
<path d="" fill="#000000" transform="translate(0,0)"/>
<path d="" fill="#000000" transform="translate(0,0)"/>
<path d="" fill="#000000" transform="translate(0,0)"/>
<path d="" fill="#000000" transform="translate(0,0)"/>
<path d="" fill="#000000" transform="translate(0,0)"/>
<path d="" fill="#000000" transform="translate(0,0)"/>
<path d="" fill="#000000" transform="translate(0,0)"/>
<path d="" fill="#000000" transform="translate(0,0)"/>
<path d="" fill="#008080" transform="translate(0,0)"/>
<path d="" fill="#008000" transform="translate(0,0)"/>
<path d="" fill="#000000" transform="translate(0,0)"/>
<path d="" fill="#000000" transform="translate(0,0)"/>
<path d="" fill="#000000" transform="translate(0,0)"/>
<path d="" fill="#000000" transform="translate(0,0)"/>
<path d="" fill="#000000" transform="translate(0,0)"/>
<path d="" fill="#000000" transform="translate(0,0)"/>
<path d="" fill="#000000" transform="translate(0,0)"/>
<path d="" fill="#000000" transform="translate(0,0)"/>
<path d="" fill="#000000" transform="translate(0,0)"/>
<path d="" fill="#000000" transform="translate(0,0)"/>
<path d="" fill="#000000" transform="translate(0,0)"/>
</svg>
